<?xml version="1.0" encoding="UTF-8"?>
<svg width="30px" height="30px" viewBox="0 0 30 30" version="1.1" xmlns="http://www.w3.org/2000/svg" xmlns:xlink="http://www.w3.org/1999/xlink">
    <title>2823D55C-B844-417F-9311-B6676E3651DF</title>
    <g id="New-Mobile" stroke="none" stroke-width="1" fill="none" fill-rule="evenodd">
        <g id="Home-Page---No-Results" transform="translate(-145.000000, -1322.000000)">
            <g id="info_black_24dp" transform="translate(145.000000, 1322.000000)">
                <polygon id="Path" points="0 0 30 0 30 30 0 30"></polygon>
                <path d="M15,2.5 C8.1,2.5 2.5,8.1 2.5,15 C2.5,21.9 8.1,27.5 15,27.5 C21.9,27.5 27.5,21.9 27.5,15 C27.5,8.1 21.9,2.5 15,2.5 Z M15,21.25 C14.3125,21.25 13.75,20.6875 13.75,20 L13.75,15 C13.75,14.3125 14.3125,13.75 15,13.75 C15.6875,13.75 16.25,14.3125 16.25,15 L16.25,20 C16.25,20.6875 15.6875,21.25 15,21.25 Z M16.25,11.25 L13.75,11.25 L13.75,8.75 L16.25,8.75 L16.25,11.25 Z" id="Shape" fill="#FFFFFF" fill-rule="nonzero"></path>
            </g>
        </g>
    </g>
</svg>