<?xml version="1.0" encoding="UTF-8"?>
<svg width="50px" height="50px" viewBox="0 0 50 50" version="1.1" xmlns="http://www.w3.org/2000/svg" xmlns:xlink="http://www.w3.org/1999/xlink">
    <title>0EB981BD-2D17-493F-AAC4-410D6E072DFD</title>
    <g id="New-Web" stroke="none" stroke-width="1" fill="none" fill-rule="evenodd">
        <g id="Home-Page---No-Results" transform="translate(-775.000000, -1117.000000)">
            <g id="info_black_24dp" transform="translate(775.000000, 1117.000000)">
                <polygon id="Path" points="0 0 50 0 50 50 0 50"></polygon>
                <path d="M25,4.16666667 C13.5,4.16666667 4.16666667,13.5 4.16666667,25 C4.16666667,36.5 13.5,45.8333333 25,45.8333333 C36.5,45.8333333 45.8333333,36.5 45.8333333,25 C45.8333333,13.5 36.5,4.16666667 25,4.16666667 Z M25,35.4166667 C23.8541667,35.4166667 22.9166667,34.4791667 22.9166667,33.3333333 L22.9166667,25 C22.9166667,23.8541667 23.8541667,22.9166667 25,22.9166667 C26.1458333,22.9166667 27.0833333,23.8541667 27.0833333,25 L27.0833333,33.3333333 C27.0833333,34.4791667 26.1458333,35.4166667 25,35.4166667 Z M27.0833333,18.75 L22.9166667,18.75 L22.9166667,14.5833333 L27.0833333,14.5833333 L27.0833333,18.75 Z" id="Shape" fill="#4982B2" fill-rule="nonzero"></path>
            </g>
        </g>
    </g>
</svg>